HIERARCHY
ROOT Hips
{
	OFFSET 0.00000 0.00000 0.00000
	CHANNELS 6 Xposition Yposition Zposition Zrotation Yrotation Xrotation 
	JOINT LHipJoint
	{
		OFFSET 0 0 0
		CHANNELS 3 Zrotation Yrotation Xrotation
		JOINT LeftUpLeg
		{
			OFFSET 1.32989 -1.57253 0.78074
			CHANNELS 3 Zrotation Yrotation Xrotation
			JOINT LeftLeg
			{
				OFFSET 2.24323 -6.16323 0.00000
				CHANNELS 3 Zrotation Yrotation Xrotation
				JOINT LeftFoot
				{
					OFFSET 2.32677 -6.39275 0.00000
					CHANNELS 3 Zrotation Yrotation Xrotation
					JOINT LeftToeBase
					{
						OFFSET 0.18686 -0.51340 1.95973
						CHANNELS 3 Zrotation Yrotation Xrotation
						End Site
						{
							OFFSET 0.00000 -0.00000 1.02033
						}
					}
				}
			}
		}
	}
	JOINT RHipJoint
	{
		OFFSET 0 0 0
		CHANNELS 3 Zrotation Yrotation Xrotation
		JOINT RightUpLeg
		{
			OFFSET -1.27392 -1.57253 0.78074
			CHANNELS 3 Zrotation Yrotation Xrotation
			JOINT RightLeg
			{
				OFFSET -2.19978 -6.04385 0.00000
				CHANNELS 3 Zrotation Yrotation Xrotation
				JOINT RightFoot
				{
					OFFSET -2.29380 -6.30216 0.00000
					CHANNELS 3 Zrotation Yrotation Xrotation
					JOINT RightToeBase
					{
						OFFSET -0.24624 -0.67655 1.94854
						CHANNELS 3 Zrotation Yrotation Xrotation
						End Site
						{
							OFFSET -0.00000 -0.00000 1.03267
						}
					}
				}
			}
		}
	}
	JOINT LowerBack
	{
		OFFSET 0 0 0
		CHANNELS 3 Zrotation Yrotation Xrotation
		JOINT Spine
		{
			OFFSET -0.05982 2.08655 0.02100
			CHANNELS 3 Zrotation Yrotation Xrotation
			JOINT Spine1
			{
				OFFSET 0.04735 2.08455 -0.01795
				CHANNELS 3 Zrotation Yrotation Xrotation
				JOINT Neck
				{
					OFFSET 0 0 0
					CHANNELS 3 Zrotation Yrotation Xrotation
					JOINT Neck1
					{
						OFFSET -0.10038 1.43781 0.03084
						CHANNELS 3 Zrotation Yrotation Xrotation
						JOINT Head
						{
							OFFSET 0.07701 1.43632 -0.18495
							CHANNELS 3 Zrotation Yrotation Xrotation
							End Site
							{
								OFFSET 0.02744 1.45633 -0.07361
							}
						}
					}
				}
				JOINT LeftShoulder
				{
					OFFSET 0 0 0
					CHANNELS 3 Zrotation Yrotation Xrotation
					JOINT LeftArm
					{
						OFFSET 2.75061 0.74389 0.25227
						CHANNELS 3 Zrotation Yrotation Xrotation
						JOINT LeftForeArm
						{
							OFFSET 4.36901 -0.00000 0.00000
							CHANNELS 3 Zrotation Yrotation Xrotation
							JOINT LeftHand
							{
								OFFSET 3.21737 -0.00000 -0.00000
								CHANNELS 3 Zrotation Yrotation Xrotation
								JOINT LeftFingerBase
								{
									OFFSET 0 0 0
									CHANNELS 3 Zrotation Yrotation Xrotation
									JOINT LeftHandIndex1
									{
										OFFSET 0.56431 -0.00000 0.00000
										CHANNELS 3 Zrotation Yrotation Xrotation
										End Site
										{
											OFFSET 0.45496 -0.00000 0.00000
										}
									}
								}
								JOINT LThumb
								{
									OFFSET 0 0 0
									CHANNELS 3 Zrotation Yrotation Xrotation
									End Site
									{
										OFFSET 0.46191 -0.00000 0.46191
									}
								}
							}
						}
					}
				}
				JOINT RightShoulder
				{
					OFFSET 0 0 0
					CHANNELS 3 Zrotation Yrotation Xrotation
					JOINT RightArm
					{
						OFFSET -2.97379 0.79094 0.48377
						CHANNELS 3 Zrotation Yrotation Xrotation
						JOINT RightForeArm
						{
							OFFSET -4.34118 -0.00000 -0.00000
							CHANNELS 3 Zrotation Yrotation Xrotation
							JOINT RightHand
							{
								OFFSET -3.09531 -0.00000 0.00000
								CHANNELS 3 Zrotation Yrotation Xrotation
								JOINT RightFingerBase
								{
									OFFSET 0 0 0
									CHANNELS 3 Zrotation Yrotation Xrotation
									JOINT RightHandIndex1
									{
										OFFSET -0.59745 -0.00000 0.00000
										CHANNELS 3 Zrotation Yrotation Xrotation
										End Site
										{
											OFFSET -0.48168 -0.00000 0.00000
										}
									}
								}
								JOINT RThumb
								{
									OFFSET 0 0 0
									CHANNELS 3 Zrotation Yrotation Xrotation
									End Site
									{
										OFFSET -0.48903 -0.00000 0.48903
									}
								}
							}
						}
					}
				}
			}
		}
	}
}
MOTION
Frames: 11
Frame Time: 0.0166666
9.2429 15.4461 41.4459 158.9810 -35.4002 -139.5910 0.0000 0.0000 0.0000 -29.7067 1.8608 -19.0150 2.1212 9.1140 26.1527 -0.9787 18.5189 -14.3711 1.5088 -7.7577 -21.9806 0.0000 0.0000 0.0000 0.9421 5.0171 -53.8377 -6.6589 -15.0378 47.5722 -1.5093 -8.3021 -27.5191 -0.0023 0.3074 -0.8447 2.0428 -0.0955 8.5076 8.5787 -0.3228 2.4001 7.9326 -0.4179 -2.2294 -5.4265 -13.1581 -3.1983 11.2464 -17.5218 -0.7163 3.9291 -8.6022 1.9612 0.0000 0.0000 0.0000 42.4789 -16.2988 -29.8303 61.3341 -56.6551 -35.4534 -0.0000 0.0000 -4.8545 27.4143 25.1647 12.4374 -7.1250 0.0000 -0.0000 -2.4868 57.8524 -0.7826 0.0000 0.0000 0.0000 8.8851 6.5988 -14.1179 -16.9876 26.8415 -4.0818 0.0000 -0.0000 -2.7333 -18.0235 20.4003 -6.4707 7.1250 -0.0000 -0.0000 6.6904 -8.7375 5.6361
9.2698 15.3563 41.0990 157.5860 -33.5167 -136.6550 0.0000 0.0000 0.0000 -30.4524 0.7801 -20.4827 2.2239 9.3177 26.7943 -0.8428 17.7135 -14.7958 0.7327 -5.4689 -15.2508 0.0000 0.0000 0.0000 0.5346 3.3179 -58.0832 -7.4342 -15.6869 50.4982 -1.7343 -5.5194 -27.3754 -0.0180 0.8666 -2.3819 2.8397 -0.0684 9.3731 8.8913 -0.1599 2.1165 7.8291 -0.3455 -3.0258 -5.0022 -13.1563 -2.2113 11.1650 -17.3837 -2.3080 3.9729 -8.5990 1.1972 -0.0000 0.0000 0.0000 44.2420 -16.9032 -28.8472 54.0198 -54.4935 -29.4164 -0.0000 0.0000 -1.8790 22.8207 30.5967 12.0888 -7.1250 0.0000 -0.0000 -10.4298 62.3649 -4.4280 -0.0000 0.0000 0.0000 7.6974 9.8813 -16.6309 -16.9285 26.7634 -4.0551 0.0000 -0.0000 -3.6273 -19.4068 19.7298 -6.7822 7.1250 -0.0000 -0.0000 5.7594 -9.2454 4.7841
9.3170 15.2529 40.6783 155.4720 -31.6660 -133.8980 0.0000 0.0000 0.0000 -31.7671 1.3481 -21.5796 2.2256 9.3209 26.8045 -0.8953 17.0741 -11.2365 0.9164 -6.0994 -17.0732 0.0000 0.0000 0.0000 -0.1680 1.2803 -62.2421 -8.7708 -16.6579 55.2941 -2.0019 -2.5789 -27.7613 -0.0211 0.9377 -2.5775 2.9606 -0.2247 10.8212 9.2202 -0.2359 1.8703 8.1946 -0.3824 -4.0816 -4.6916 -12.9013 -1.6089 10.6127 -16.9408 -3.4325 3.8594 -8.4227 0.6011 0.0000 0.0000 0.0000 46.1604 -17.9561 -28.1675 46.4905 -51.4781 -23.3991 -0.0000 0.0000 -0.0762 19.7495 31.5692 10.6451 -7.1250 0.0000 -0.0000 -14.6469 62.5331 -6.3120 0.0000 0.0000 0.0000 6.1908 13.3478 -18.5108 -16.7043 26.4663 -3.9546 0.0000 -0.0000 -4.5230 -21.1278 19.2786 -7.2707 7.1250 -0.0000 -0.0000 4.6155 -9.4781 3.8051
9.3690 15.0009 40.2739 153.6340 -29.4488 -131.9870 0.0000 0.0000 0.0000 -33.0468 1.8106 -21.0143 2.1215 9.1147 26.1547 -0.7611 15.7091 -10.0009 0.6770 -5.2613 -14.6554 0.0000 0.0000 0.0000 -0.8377 -0.6714 -67.2482 -10.8623 -17.8671 62.3337 -2.1989 0.4326 -27.9584 -0.0268 1.0566 -2.9044 3.2713 -0.1816 13.2156 9.7756 -0.0928 2.4313 8.6980 -0.3608 -4.8275 -4.7214 -12.7741 -4.4246 9.4511 -16.6942 -3.3850 3.2906 -8.2403 0.9616 -0.0000 -0.0000 0.0000 46.8125 -17.3828 -28.9037 41.4088 -48.8828 -19.4941 -0.0000 -0.0000 0.3195 18.2458 32.1192 9.9418 -7.1250 0.0000 -0.0000 -16.7785 62.6754 -7.3128 -0.0000 -0.0000 0.0000 3.8866 17.2204 -22.2490 -16.6161 26.3489 -3.9154 0.0000 -0.0000 -5.2553 -22.4830 18.8065 -7.5995 7.1250 -0.0000 -0.0000 3.6996 -9.7812 3.0238
9.4141 14.7747 39.8290 152.0770 -27.0976 -130.1500 0.0000 0.0000 0.0000 -34.6935 3.5597 -21.2207 1.9770 8.8180 25.2278 -0.6764 14.3854 -5.4759 1.8622 -8.5729 -24.4680 0.0000 0.0000 0.0000 -1.8773 -1.9354 -72.2193 -13.0972 -18.8170 69.4270 -2.4356 4.4264 -28.5092 -0.2663 -3.3197 9.1701 4.3212 -0.5335 15.8466 9.7749 -0.1929 2.4108 8.2382 -0.4319 -6.2864 -4.6933 -12.0746 -3.2599 9.5634 -15.6633 -5.3659 3.5418 -7.8059 0.0576 0.0000 0.0000 0.0000 47.7494 -18.2924 -30.4863 36.3118 -45.7265 -15.7454 -0.0000 -0.0000 0.4643 17.9861 33.0653 10.0445 -7.1250 0.0000 -0.0000 -17.8775 63.5060 -8.1560 0.0000 0.0000 0.0000 2.4773 21.1499 -23.5631 -16.7240 26.4925 -3.9634 0.0000 -0.0000 -6.9988 -24.6805 18.5610 -8.3220 7.1250 -0.0000 -0.0000 2.2490 -9.7111 1.8388
9.4723 14.4562 39.3860 150.9330 -24.7054 -127.8220 0.0000 0.0000 0.0000 -34.8828 0.9379 -19.7694 1.8392 8.5228 24.3135 -0.5435 13.4512 -8.9595 0.4827 -4.4554 -12.3615 0.0000 0.0000 0.0000 -3.0875 -2.4204 -76.9105 -15.0140 -19.3932 75.2788 -2.0072 4.2715 -25.7929 -0.1740 2.6869 -7.4082 6.3539 -1.5656 18.1694 9.3913 -0.9362 2.2389 6.9547 -0.8415 -7.6954 -5.0269 -10.8155 -4.5206 9.4880 -13.9722 -5.1256 3.5631 -6.9383 0.2470 -0.0000 0.0000 0.0000 48.2268 -18.2288 -32.2559 32.5292 -42.9650 -13.1001 -0.0000 0.0000 -0.7183 20.0087 34.4735 11.6464 -7.1250 0.0000 -0.0000 -16.8517 65.3917 -8.4123 -0.0000 0.0000 0.0000 1.2493 27.2530 -25.6928 -16.3898 26.0463 -3.8155 0.0000 -0.0000 -7.7633 -26.3089 18.2785 -8.8146 7.1250 -0.0000 -0.0000 1.1620 -9.7558 0.9485
9.5387 14.2203 38.8441 149.5140 -22.5648 -125.0650 0.0000 0.0000 0.0000 -35.6267 1.5791 -20.1525 1.7187 8.2539 23.4879 -0.3448 10.7983 -7.2975 0.2273 -3.0689 -8.4706 0.0000 0.0000 0.0000 -4.8124 -2.1170 -78.7973 -16.0998 -19.6313 78.5289 -2.4305 6.7480 -28.1780 -0.2305 3.0900 -8.5293 6.6396 -1.0960 19.8957 10.2673 -0.0769 2.1473 7.7093 -0.4609 -8.8060 -4.4881 -10.4086 -4.7696 8.6209 -13.4046 -6.4374 3.2494 -6.6963 -0.2839 -0.0000 -0.0000 0.0000 48.4347 -20.6320 -38.3842 29.2343 -40.2280 -10.9117 -0.0000 0.0000 -2.4511 22.2616 34.6280 13.0947 -7.1250 0.0000 -0.0000 -14.3064 66.1828 -7.3764 -0.0000 -0.0000 0.0000 -1.6182 28.8446 -27.2113 -16.6689 26.4192 -3.9389 0.0000 -0.0000 -10.1193 -27.7550 17.3312 -8.9094 7.1250 -0.0000 -0.0000 0.1185 -10.5553 0.0948
9.5969 13.9158 38.2881 146.9300 -20.9860 -120.6310 0.0000 0.0000 0.0000 -36.8105 3.6757 -22.1660 1.6458 8.0856 22.9743 -0.1103 6.0283 -0.7818 0.4129 -4.1249 -11.4283 0.0000 0.0000 0.0000 -6.3225 -2.5782 -80.5981 -16.7161 -19.7395 80.3584 -3.1309 7.9448 -32.0712 -0.0774 1.7944 -4.9377 8.5881 -1.9409 20.6810 10.6277 -0.5191 1.4438 7.2654 -0.7329 -10.0054 -5.0329 -9.5303 -5.1268 8.3787 -12.2081 -7.4935 3.3327 -6.1225 -0.6251 0.0000 -0.0000 0.0000 48.7662 -20.9329 -41.3417 26.9034 -38.0869 -9.4395 -0.0000 0.0000 -4.9805 24.8421 34.8703 14.8252 -7.1250 0.0000 -0.0000 -11.3231 67.1774 -6.0765 0.0000 -0.0000 0.0000 -4.4172 32.4624 -30.8248 -16.4425 26.1170 -3.8387 0.0000 -0.0000 -10.0868 -30.5798 17.1505 -9.8847 7.1250 -0.0000 -0.0000 -1.7491 -10.2663 -1.4100
9.6831 13.6793 37.6964 145.3500 -18.1357 -116.4310 0.0000 0.0000 0.0000 -36.5197 3.1952 -20.9922 1.4676 7.6558 21.6734 -0.0263 3.2217 0.3716 0.0019 0.2818 0.7744 0.0000 0.0000 0.0000 -8.1878 -2.1795 -83.1299 -17.1553 -19.8049 81.6567 -4.0650 12.2794 -36.6094 -0.3851 -3.9852 11.0351 10.1843 -2.3500 22.1080 10.6378 -0.3226 0.8773 6.4918 -0.7094 -11.4737 -5.3042 -8.6405 -5.8813 8.2124 -11.0099 -8.6219 3.3747 -5.5540 -0.9400 -0.0000 -0.0000 0.0000 49.2934 -20.3517 -43.2679 25.4947 -36.7054 -8.5839 -0.0000 0.0000 -7.4111 27.5128 35.0094 16.6371 -7.1250 0.0000 -0.0000 -7.9600 68.1246 -4.4319 -0.0000 -0.0000 0.0000 -8.2934 36.5263 -37.7125 -15.3407 24.6186 -3.3666 0.0000 -0.0000 -9.1877 -32.2866 17.0469 -10.4939 7.1250 -0.0000 -0.0000 -2.8734 -10.0637 -2.3301
9.8082 13.5094 37.0271 144.8850 -14.1062 -113.1790 0.0000 0.0000 0.0000 -35.2747 3.6201 -17.0278 1.1206 6.7244 18.9014 -0.0168 2.3706 -0.2362 0.0008 0.1795 0.4932 0.0000 0.0000 0.0000 -10.2170 -1.1286 -84.6462 -17.1248 -19.8006 81.5666 -3.6865 11.4276 -34.7882 -0.0303 1.1244 -3.0910 10.5997 -1.8021 24.3713 10.5747 0.9040 0.8166 5.9480 -0.1853 -12.8438 -5.1532 -8.0811 -6.1559 8.2427 -10.2550 -10.4165 3.4450 -5.2406 -1.5400 -0.0000 0.0000 0.0000 49.9157 -20.3067 -45.8389 25.4298 -36.6401 -8.5451 -0.0000 0.0000 -11.5472 30.7618 35.3726 19.0122 -7.1250 0.0000 -0.0000 -3.7405 69.5097 -2.1956 -0.0000 0.0000 0.0000 -13.0441 40.2145 -50.0048 -13.5380 22.0704 -2.6520 0.0000 -0.0000 -4.7782 -36.1943 18.7439 -13.2319 7.1250 -0.0000 -0.0000 -5.1116 -7.2493 -4.4439
9.9702 13.4005 36.2297 141.4380 -11.2080 -108.2010 0.0000 0.0000 0.0000 -31.9947 3.0438 -9.0082 0.6840 5.2879 14.7316 -0.2072 9.3572 1.6823 0.0138 -0.7579 -2.0828 0.0000 0.0000 0.0000 -12.3783 -3.0319 -84.9464 -16.5472 -19.7117 79.8581 -3.7945 13.1405 -35.3331 -0.0198 0.9083 -2.4965 11.3182 -1.7351 24.3662 10.6630 1.3392 0.3512 5.5405 -0.0135 -13.4032 -4.0954 -7.7915 -7.1428 8.5682 -9.8410 -12.1503 3.4085 -5.1270 -2.0107 -0.0000 -0.0000 0.0000 50.7975 -20.3934 -47.5223 26.9163 -38.0992 -9.4474 -0.0000 0.0000 -17.8783 33.9352 36.4119 21.7719 -7.1250 0.0000 -0.0000 0.2851 71.6170 0.1806 -0.0000 -0.0000 0.0000 -17.5227 42.5325 -64.4897 -12.3075 20.2642 -2.2076 0.0000 -0.0000 -1.9289 -39.1586 19.4885 -15.1998 7.1250 -0.0000 -0.0000 -6.8221 -5.5947 -6.1694
